#!Matlab matrix to amc conversion
:FULLY-SPECIFIED
:DEGREES
16
root 9.192140 16.357400 -29.724600 2.037331 1.634016 0.200608
lowerback -4.760589 2.784811 4.674067
upperback -3.496789 3.558446 1.589699
thorax -0.723367 1.713847 -0.661033
lowerneck -15.076194 -0.495802 0.268558
upperneck 40.991250 -1.077708 0.018815
head 18.339122 -0.324162 -0.242419
rclavicle -0.000000 0.000000
rhumerus -35.610386 -5.585449 -76.093099
rradius 38.212034
rwrist -16.365639
rhand -7.097119 11.268964
rfingers 7.125020
rthumb 18.771529 -17.773143
lclavicle -0.000000 0.000000
lhumerus -53.685997 31.218466 55.991104
lradius 25.777064
lwrist -4.133536
lhand -1.366930 22.151156
lfingers 7.125020
lthumb 24.270400 50.533277
rfemur -3.448907 19.051662 29.122284
rtibia 19.480375
rfoot -14.137777 -13.218576
rtoes 4.389046
lfemur -34.754427 -10.123368 -7.427752
ltibia 26.925503
lfoot -14.290039 17.143276
ltoes -20.575483
17
root 9.191770 16.245600 -29.440800 1.429662 1.634016 -0.333904
lowerback -4.989960 2.852721 4.844184
upperback -3.674528 3.612546 1.625588
thorax -0.772260 1.741123 -0.758991
lowerneck -15.123160 -0.482732 0.256256
upperneck 40.909425 -1.092415 0.012750
head 18.290384 -0.331410 -0.243160
rclavicle -0.000000 0.000000
rhumerus -35.165424 -4.301615 -76.697286
rradius 39.531410
rwrist -17.355876
rhand -7.252821 11.935409
rfingers 7.125020
rthumb 18.619435 -17.108737
lclavicle -0.000000 0.000000
lhumerus -52.648987 29.849587 57.571671
lradius 26.797516
lwrist -2.451486
lhand -2.017140 22.609732
lfingers 7.125020
lthumb 23.648013 51.097139
rfemur -1.185817 19.152731 29.396353
rtibia 18.131082
rfoot -13.926995 -12.306702
rtoes 4.254495
lfemur -35.292555 -12.053164 -6.056220
ltibia 23.036853
lfoot -15.604423 17.366591
ltoes -19.132713
18
root 9.208550 16.156600 -29.151500 1.874622 1.634016 -0.019985
lowerback -5.185174 2.937352 4.807178
upperback -3.884147 3.717083 1.562423
thorax -0.868548 1.789481 -0.777956
lowerneck -14.863031 -0.748249 -0.215380
upperneck 40.274905 -1.583802 0.538114
head 17.784256 -0.559254 -0.009089
rclavicle -0.000000 0.000000
rhumerus -35.486315 -4.184797 -77.069864
rradius 39.794168
rwrist -17.514254
rhand -7.524789 11.506696
rfingers 7.125020
rthumb 18.358147 -17.548476
lclavicle -0.000000 0.000000
lhumerus -52.358614 29.671760 56.869301
lradius 27.035411
lwrist -2.225467
lhand -2.633905 22.697116
lfingers 7.125020
lthumb 23.054248 51.268437
rfemur 0.931839 19.760985 29.101266
rtibia 16.606322
rfoot -13.085992 -11.750138
rtoes 3.376187
lfemur -35.277625 -13.439030 -4.924575
ltibia 23.571964
lfoot -13.478870 17.110542
ltoes -18.891285
19
root 9.222000 16.080900 -28.855000 2.244572 1.634016 0.251091
lowerback -5.388614 3.030247 4.705820
upperback -4.105330 3.836764 1.484845
thorax -0.964804 1.845582 -0.805983
lowerneck -14.599861 -1.023291 -0.711758
upperneck 39.638352 -2.097450 1.111497
head 17.275995 -0.795132 0.245797
rclavicle -0.000000 0.000000
rhumerus -35.828536 -4.083013 -77.455107
rradius 39.984993
rwrist -17.676364
rhand -7.808391 11.103563
rfingers 7.125020
rthumb 18.085638 -17.961233
lclavicle -0.000000 0.000000
lhumerus -52.049420 29.485679 56.160277
lradius 27.280094
lwrist -1.938195
lhand -3.266782 22.785031
lfingers 7.125020
lthumb 22.444957 51.441875
rfemur 3.148498 20.405139 28.728889
rtibia 15.353914
rfoot -12.222092 -11.209722
rtoes 2.465655
lfemur -35.246281 -14.347274 -4.145914
ltibia 24.532010
lfoot -11.219803 16.759282
ltoes -17.779641
20
root 9.232280 16.013400 -28.551200 1.973889 1.634016 -0.434740
lowerback -5.812696 3.088808 3.906495
upperback -4.208707 3.924556 1.134025
thorax -0.838374 1.896718 -0.818570
lowerneck -14.537559 -1.480577 -1.454471
upperneck 39.051883 -2.884269 1.882547
head 17.011139 -1.144418 0.555188
rclavicle -0.000000 0.000000
rhumerus -36.529400 -6.605862 -76.366439
rradius 36.276287
rwrist -14.432349
rhand -7.067148 11.549923
rfingers 7.125020
rthumb 18.797485 -17.432796
lclavicle -0.000000 0.000000
lhumerus -50.924564 29.318487 56.096446
lradius 27.995208
lwrist -0.778237
lhand -3.690096 22.582321
lfingers 7.125020
lthumb 22.041312 51.292356
rfemur 3.639379 20.552677 26.990902
rtibia 16.129225
rfoot -10.019238 -11.518348
rtoes 1.012148
lfemur -33.456913 -13.066883 -6.502247
ltibia 25.542384
lfoot -11.309997 17.022829
ltoes -15.534548
21
root 9.239730 15.970900 -28.241000 1.807976 1.634016 -0.630202
lowerback -6.200210 3.123090 3.293054
upperback -4.299635 3.977431 0.822960
thorax -0.734668 1.927669 -0.821172
lowerneck -14.476979 -1.903103 -2.064529
upperneck 38.479570 -3.593003 2.464414
head 16.752893 -1.466964 0.775463
rclavicle -0.000000 0.000000
rhumerus -37.178604 -8.845901 -75.414248
rradius 33.086711
rwrist -11.521850
rhand -6.356725 11.868595
rfingers 7.125020
rthumb 19.479735 -17.052731
lclavicle -0.000000 0.000000
lhumerus -50.025688 29.115847 56.142269
lradius 28.596546
lwrist -0.018551
lhand -4.077582 22.393645
lfingers 7.125020
lthumb 21.671655 51.153695
rfemur 3.920964 20.617665 25.553695
rtibia 16.881274
rfoot -8.667675 -11.827781
rtoes -0.037596
lfemur -31.898961 -12.127586 -8.531075
ltibia 26.207069
lfoot -11.435519 17.258470
ltoes -13.936217
22
root 9.241850 15.946000 -27.925100 1.701618 1.634016 -0.686097
lowerback -6.557776 3.139181 2.790162
upperback -4.381513 4.005685 0.540469
thorax -0.650698 1.944879 -0.813996
lowerneck -14.415451 -2.299158 -2.582524
upperneck 37.915067 -4.242258 2.916909
head 16.498049 -1.769197 0.937534
rclavicle -0.000000 0.000000
rhumerus -37.793325 -10.883714 -74.549483
rradius 30.252797
rwrist -8.824955
rhand -5.664507 12.089831
rfingers 7.125020
rthumb 20.144471 -16.782249
lclavicle -0.000000 0.000000
lhumerus -49.257173 28.865418 56.300720
lradius 29.145090
lwrist 0.534286
lhand -4.442453 22.214777
lfingers 7.125020
lthumb 21.323419 51.022756
rfemur 4.026148 20.603013 24.304314
rtibia 17.661507
rfoot -7.768639 -12.150941
rtoes -0.826019
lfemur -30.485120 -11.382608 -10.361237
ltibia 26.653987
lfoot -11.625307 17.486664
ltoes -12.704513
